<!DOCTYPE svg [
  <!ENTITY nbsp "entity-value">
]>
<svg
  xmlns="http://www.w3.org/2000/svg"
  viewBox="0 0 681.02 150.87"
  style="display: block; margin: 0px auto; "
>
  <g id="Camada_15_Imagem" data-name="Camada 15&nbsp;Imagem">
    <path
      class="cls-1"
      d="M87,236.36a55.72,55.72,0,0,1,8,6.46c.62.6.9,1,1.51,1.57,2.22,2,7.27,6.61,8.76,8.81,1.76,2.58,4.1,1.92,9.47,2.15l11.35.51,1.61,4.47c9.58,2.89,6.6,4.05,20.94,6.82,3.76.72,8,1.39,11.6,2.27,7.29,1.77,2.39,11.23,32.43,2.13,14.45-4.37,8.72-3.2,20-8,2.91-1.24,9.93-2.76,15.56-5.08,1.75-.71,3.32-1.6,4.92-2.16,7.28-2.54,15.11-3.45,22.31-5.75,8.69-2.79,7.91-8.42,12.34-15.38,1-1.57,7.2-11.77,8.31-12.65l4.19-2.82c.19-10.87-1.39-25.84-3.3-36.56-.69-3.82-2.72-5.27-4.18-7.87-2.16-3.83-1.84-11.29-11.06-25-1.09-1.61-2.2-1.22-4.44-1.41-27-2.38-22.27-5.39-38.09-16.15-2.65-1.8-5-2.7-7.23-4.79a19.45,19.45,0,0,0-3.39-2.46c-2.22-1.23-2.31-1-4.62-.36-13.77,4.09-14.85-.33-21.17.73-7.21,1.21-25.13,11.39-31.54,16.51-3.52,2.82-3.07,4-6.79,5.22-5.79,1.85-5.18,1.85-10.29,7.59-1.73,1.94-1.15,1.27-4.17,2C116.9,160.19,107.89,165.4,97.5,173c-1.77,1.28-1.38,1.53-1.84,4-1.56,8.29-.33,7-6,12.15-2.35,2.13-3.18,3.9-5.08,6.95-1.6,2.57-3,4.87-4.57,7.45-1.33,2.14-3.86,5.4-3.86,8.46C76.15,219.44,80.66,232,87,236.36ZM246.25,219.8c-3.45-2.12-20.19-12.17-21.15-13.31,1.08-1.45,4.35-4.32,6-6.45l22.82,13.53C252.2,215.08,248,218.84,246.25,219.8Zm-31.44-36.25,6.86.65-8,7.29c-1.9,1.91-5.46,5.87-7.49,7l-4-2.51C203.26,195,214.11,184,214.81,183.55ZM210.5,180l-12,13.55-4.17-1.79c.4-1.12,9.37-12.58,11.21-14.49Zm-14.77-8.33,6.14-8.86c2.46,4.55,3.22,6.23,3.72,7.38a24.23,24.23,0,0,1-2.48,3.63,125.5,125.5,0,0,1-11.75,13.82c-1.42,1.53-2.52,2.85-4,4.33-.86.85-3.51,3.83-4.46,4.12s-6.32.54-7.86.64c.57-1.51,2.74-3,3.77-4.07,2.67-2.69,4.83-5.2,7.25-8.15,1.12-1.38,2.19-2.64,3.28-4.12C191.44,177.57,193.68,174.74,195.73,171.69Zm-46.65.48c15-3.29,25.79-1.16,38.85,3.87l-5.38,6.49c-5.33-1.26-10.62-2.77-16.11-2.93-10.88-.29-21.23,2.35-30.93,6.45-3.27,1.38-11.61,6.41-12.06,6.51-1-.91-5.78-4.75-6.14-5.39C125.47,180,138.28,174.54,149.08,172.17Zm-25.79,26.2c9.32,6.5,17.71,11.11,30.25,13.64,11.44,2.31,28.25,1.31,38.65-2.51,12.87-4.71,20.91-11.16,29.69-19.48S235,176.4,240.39,170.33l6.68,4.82c-11.31,14.91-24.87,29.32-41.21,38.66-11.63,6.65-29.32,10.74-41,9.73s-29.38-5.31-40.33-12.77c-2.21-1.51-8.45-6-9.2-8.3Z"
      transform="translate(-76.15 -124.58)"
      style="fill: rgb(131, 71, 129);"
    ></path>
  </g>
</svg>